<svg width="155" height="70" viewBox="0 0 155 70" fill="none" xmlns="http://www.w3.org/2000/svg">
<path d="M3.17688 61.3802L3.17688 30.6882" stroke="#FF7A01" stroke-width="5" stroke-linecap="round"/>
<path d="M80.3557 52.7012L84.1206 20.6824" stroke="#69A843" stroke-width="5" stroke-linecap="round"/>
<path d="M85.0618 20.6823L92.5914 48.6988" stroke="#69A843" stroke-width="5" stroke-linecap="round"/>
<path d="M47.4135 60.0388V34.6906" stroke="#69A843" stroke-width="5" stroke-linecap="round"/>
<path d="M140.593 48.0317V24.0176" stroke="#69A843" stroke-width="5" stroke-linecap="round"/>
<path d="M151.887 48.0317H140.593" stroke="#69A843" stroke-width="5" stroke-linecap="round"/>
<path d="M151.887 22.0164L140.593 24.0176" stroke="#69A843" stroke-width="5" stroke-linecap="round"/>
<path d="M146.24 35.6107H140.593" stroke="#69A843" stroke-width="5" stroke-linecap="round"/>
<path d="M99.1799 66.7094V43.3623" stroke="#69A843" stroke-width="5" stroke-linecap="round"/>
<path d="M110.474 56.7035V33.3565" stroke="#69A843" stroke-width="5" stroke-linecap="round"/>
<path d="M110 57L100.121 43.3623" stroke="#FF7A01" stroke-width="5" stroke-linecap="round"/>
<path d="M59.6492 64.7082V41.3612" stroke="#69A843" stroke-width="5" stroke-linecap="round"/>
<path d="M70.9437 54.7023V31.3553" stroke="#69A843" stroke-width="5" stroke-linecap="round"/>
<path d="M70 55L60.5904 41.3612" stroke="#FF7A01" stroke-width="5" stroke-linecap="round"/>
<path d="M27.6482 64.7082L27.6482 36.0224C27.6482 33.8132 29.4391 32.0223 31.6482 32.0223H38.9427" stroke="#69A843" stroke-width="5" stroke-linecap="round"/>
<path d="M27.6482 45.3635H36.1191" stroke="#69A843" stroke-width="5" stroke-linecap="round"/>
<path d="M11.6477 57.3706L11.6477 28.6847C11.6477 26.4756 13.4386 24.6847 15.6477 24.6847H22.9422" stroke="#FF7A01" stroke-width="5" stroke-linecap="round"/>
<path d="M11.6477 38.0259H20.1186" stroke="#FF7A01" stroke-width="5" stroke-linecap="round"/>
<path d="M135.416 53.0347L132.786 54.2687C128.776 56.1493 124.032 55.4515 120.734 52.4962V52.4962C118.398 50.4028 117.063 47.4142 117.063 44.2774V39.6323C117.063 37.6221 117.645 35.6549 118.739 33.9683V33.9683C120.366 31.459 122.994 29.7708 125.952 29.334L132.593 28.3535" stroke="#69A843" stroke-width="5" stroke-linecap="round"/>
<path d="M2.70625 11.3435L11.3937 5.51056C11.5593 5.39939 11.754 5.34001 11.953 5.34001L23.8094 5.34001C24.1489 5.34001 24.4645 5.51228 24.6474 5.7975L28.7666 12.2201C28.9495 12.5053 29.2651 12.6776 29.6046 12.6776L39.7326 12.6776C39.8329 12.6776 39.9325 12.6927 40.0282 12.7224L47.4135 15.0124L59.9159 20.9196C60.0501 20.983 60.1684 21.0756 60.2621 21.1907L65.4021 27.505C65.9955 28.2339 67.1788 27.8091 67.1788 26.8672L67.1788 11.9321C67.1788 11.5688 67.3759 11.2333 67.6935 11.0555L76.1203 6.34059L83.7389 1.24104C84.2064 0.928154 84.838 1.06007 85.138 1.53321L99.1153 23.5823C99.1582 23.6499 99.209 23.7121 99.2668 23.7675L105.486 29.7311C106.121 30.3402 107.18 29.8853 107.18 29.0034L107.18 15.7695C107.18 15.3217 107.478 14.9271 107.909 14.8038L131.567 8.03239C131.623 8.01629 131.678 7.99531 131.731 7.96967L139.055 4.40097C139.139 4.36014 139.228 4.33117 139.319 4.31492L152.358 2.00471" stroke="#69A843" stroke-width="2"/>
</svg>
